<svg width="267" height="271" viewBox="0 0 267 271" fill="none" xmlns="http://www.w3.org/2000/svg">
<g clip-path="url(#clip0_432_175)">
<ellipse cx="138" cy="135" rx="126" ry="128" fill="#054288"/>
<g filter="url(#filter0_d_432_175)">
<path d="M65.7847 118.504C47.9611 95.0988 72.3114 0.183624 145.619 8.58362C218.926 16.9836 273.526 65.9294 264.887 141.318C256.481 214.679 193.349 268.076 122.409 263.154C118.502 262.883 114.617 261.862 111.491 259.503C78.1848 234.376 82.7985 140.845 65.7847 118.504Z" fill="#1C7BD3" fill-opacity="0.69" shape-rendering="crispEdges"/>
</g>
<g filter="url(#filter1_d_432_175)">
<path d="M126.768 208V61.0909H185.589C196.397 61.0909 205.412 62.6929 212.633 65.897C219.854 69.1011 225.282 73.5485 228.916 79.2393C232.551 84.8823 234.368 91.3861 234.368 98.7507C234.368 104.489 233.22 109.535 230.925 113.886C228.629 118.19 225.473 121.729 221.456 124.503C217.487 127.229 212.944 129.165 207.827 130.313V131.748C213.422 131.987 218.658 133.565 223.536 136.482C228.462 139.399 232.455 143.488 235.516 148.749C238.576 153.961 240.107 160.178 240.107 167.399C240.107 175.194 238.17 182.152 234.296 188.273C230.47 194.347 224.804 199.153 217.295 202.692C209.787 206.231 200.534 208 189.535 208H126.768ZM157.829 182.607H183.151C191.806 182.607 198.119 180.957 202.088 177.657C206.057 174.309 208.042 169.862 208.042 164.315C208.042 160.25 207.062 156.663 205.101 153.555C203.14 150.446 200.343 148.007 196.708 146.238C193.121 144.469 188.841 143.584 183.868 143.584H157.829V182.607ZM157.829 122.566H180.855C185.111 122.566 188.889 121.825 192.189 120.342C195.536 118.812 198.167 116.66 200.08 113.886C202.04 111.113 203.021 107.789 203.021 103.915C203.021 98.6072 201.132 94.3272 197.354 91.0753C193.624 87.8234 188.315 86.1974 181.429 86.1974H157.829V122.566ZM294.392 209.483C289.38 209.483 284.914 208.614 280.994 206.875C277.074 205.102 273.971 202.494 271.687 199.051C269.437 195.574 268.312 191.244 268.312 186.062C268.312 181.699 269.113 178.034 270.716 175.068C272.318 172.102 274.5 169.716 277.261 167.909C280.022 166.102 283.159 164.739 286.67 163.818C290.216 162.898 293.931 162.25 297.818 161.875C302.386 161.398 306.068 160.955 308.863 160.545C311.659 160.102 313.687 159.455 314.949 158.602C316.21 157.75 316.841 156.489 316.841 154.818V154.511C316.841 151.273 315.818 148.767 313.772 146.994C311.761 145.222 308.897 144.335 305.181 144.335C301.261 144.335 298.142 145.205 295.824 146.943C293.505 148.648 291.971 150.795 291.221 153.386L271.074 151.75C272.096 146.977 274.108 142.852 277.108 139.375C280.108 135.864 283.977 133.17 288.716 131.295C293.488 129.386 299.011 128.432 305.284 128.432C309.647 128.432 313.824 128.943 317.812 129.966C321.835 130.989 325.397 132.574 328.5 134.722C331.636 136.869 334.108 139.631 335.914 143.006C337.721 146.347 338.625 150.352 338.625 155.023V208H317.966V197.108H317.352C316.091 199.562 314.403 201.727 312.289 203.602C310.176 205.443 307.636 206.892 304.67 207.949C301.704 208.972 298.278 209.483 294.392 209.483ZM300.63 194.449C303.835 194.449 306.664 193.818 309.119 192.557C311.574 191.261 313.5 189.523 314.897 187.341C316.295 185.159 316.994 182.687 316.994 179.926V171.591C316.312 172.034 315.375 172.443 314.181 172.818C313.022 173.159 311.71 173.483 310.244 173.79C308.778 174.062 307.312 174.318 305.846 174.557C304.38 174.761 303.051 174.949 301.858 175.119C299.301 175.494 297.068 176.091 295.159 176.909C293.25 177.727 291.767 178.835 290.71 180.233C289.653 181.597 289.125 183.301 289.125 185.347C289.125 188.312 290.199 190.58 292.346 192.148C294.528 193.682 297.289 194.449 300.63 194.449ZM355.116 208V195.011L393.571 147.403V146.841H356.446V129.455H419.804V143.619L383.701 190.051V190.614H421.133V208H355.116ZM488.16 174.557V129.455H509.944V208H489.029V193.733H488.211C486.439 198.335 483.49 202.034 479.365 204.83C475.274 207.625 470.279 209.023 464.382 209.023C459.132 209.023 454.512 207.83 450.524 205.443C446.535 203.057 443.416 199.665 441.166 195.267C438.95 190.869 437.825 185.602 437.791 179.466V129.455H459.575V175.58C459.609 180.216 460.853 183.881 463.308 186.574C465.762 189.267 469.052 190.614 473.177 190.614C475.802 190.614 478.257 190.017 480.541 188.824C482.825 187.597 484.666 185.79 486.064 183.403C487.495 181.017 488.194 178.068 488.16 174.557ZM562.858 209.534C554.812 209.534 547.892 207.83 542.096 204.42C536.335 200.977 531.903 196.205 528.801 190.102C525.733 184 524.199 176.977 524.199 169.034C524.199 160.989 525.75 153.932 528.852 147.864C531.988 141.761 536.437 137.006 542.199 133.597C547.96 130.153 554.812 128.432 562.755 128.432C569.608 128.432 575.608 129.676 580.755 132.165C585.903 134.653 589.977 138.148 592.977 142.648C595.977 147.148 597.63 152.432 597.937 158.5H577.38C576.801 154.58 575.267 151.426 572.778 149.04C570.324 146.619 567.102 145.409 563.113 145.409C559.738 145.409 556.789 146.33 554.267 148.17C551.778 149.977 549.835 152.619 548.437 156.097C547.039 159.574 546.341 163.784 546.341 168.727C546.341 173.739 547.022 178 548.386 181.511C549.784 185.023 551.744 187.699 554.267 189.54C556.789 191.381 559.738 192.301 563.113 192.301C565.602 192.301 567.835 191.79 569.812 190.767C571.824 189.744 573.477 188.261 574.772 186.318C576.102 184.341 576.971 181.972 577.38 179.21H597.937C597.596 185.21 595.96 190.494 593.028 195.062C590.13 199.597 586.125 203.142 581.011 205.699C575.897 208.256 569.846 209.534 562.858 209.534ZM634.282 209.483C629.271 209.483 624.805 208.614 620.885 206.875C616.964 205.102 613.862 202.494 611.578 199.051C609.328 195.574 608.203 191.244 608.203 186.062C608.203 181.699 609.004 178.034 610.606 175.068C612.208 172.102 614.39 169.716 617.152 167.909C619.913 166.102 623.049 164.739 626.561 163.818C630.106 162.898 633.822 162.25 637.708 161.875C642.277 161.398 645.958 160.955 648.754 160.545C651.549 160.102 653.578 159.455 654.839 158.602C656.1 157.75 656.731 156.489 656.731 154.818V154.511C656.731 151.273 655.708 148.767 653.663 146.994C651.652 145.222 648.788 144.335 645.072 144.335C641.152 144.335 638.032 145.205 635.714 146.943C633.396 148.648 631.862 150.795 631.112 153.386L610.964 151.75C611.987 146.977 613.998 142.852 616.998 139.375C619.998 135.864 623.868 133.17 628.606 131.295C633.379 129.386 638.902 128.432 645.174 128.432C649.538 128.432 653.714 128.943 657.703 129.966C661.725 130.989 665.288 132.574 668.39 134.722C671.527 136.869 673.998 139.631 675.805 143.006C677.612 146.347 678.515 150.352 678.515 155.023V208H657.856V197.108H657.243C655.981 199.562 654.294 201.727 652.18 203.602C650.066 205.443 647.527 206.892 644.561 207.949C641.595 208.972 638.169 209.483 634.282 209.483ZM640.521 194.449C643.725 194.449 646.555 193.818 649.01 192.557C651.464 191.261 653.39 189.523 654.788 187.341C656.186 185.159 656.885 182.687 656.885 179.926V171.591C656.203 172.034 655.265 172.443 654.072 172.818C652.913 173.159 651.6 173.483 650.135 173.79C648.669 174.062 647.203 174.318 645.737 174.557C644.271 174.761 642.941 174.949 641.748 175.119C639.191 175.494 636.958 176.091 635.049 176.909C633.14 177.727 631.657 178.835 630.6 180.233C629.544 181.597 629.015 183.301 629.015 185.347C629.015 188.312 630.089 190.58 632.237 192.148C634.419 193.682 637.18 194.449 640.521 194.449Z" fill="white"/>
</g>
</g>
<defs>
<filter id="filter0_d_432_175" x="44.1978" y="7.05908" width="221.589" height="263.409" filterUnits="userSpaceOnUse" color-interpolation-filters="sRGB">
<feFlood flood-opacity="0" result="BackgroundImageFix"/>
<feColorMatrix in="SourceAlpha" type="matrix" values="0 0 0 0 0 0 0 0 0 0 0 0 0 0 0 0 0 0 127 0" result="hardAlpha"/>
<feOffset dx="-12" dy="3"/>
<feGaussianBlur stdDeviation="2"/>
<feComposite in2="hardAlpha" operator="out"/>
<feColorMatrix type="matrix" values="0 0 0 0 0.00878328 0 0 0 0 0.0696514 0 0 0 0 0.182692 0 0 0 0.06 0"/>
<feBlend mode="normal" in2="BackgroundImageFix" result="effect1_dropShadow_432_175"/>
<feBlend mode="normal" in="SourceGraphic" in2="effect1_dropShadow_432_175" result="shape"/>
</filter>
<filter id="filter1_d_432_175" x="122.769" y="61.0908" width="559.747" height="156.443" filterUnits="userSpaceOnUse" color-interpolation-filters="sRGB">
<feFlood flood-opacity="0" result="BackgroundImageFix"/>
<feColorMatrix in="SourceAlpha" type="matrix" values="0 0 0 0 0 0 0 0 0 0 0 0 0 0 0 0 0 0 127 0" result="hardAlpha"/>
<feOffset dy="4"/>
<feGaussianBlur stdDeviation="2"/>
<feComposite in2="hardAlpha" operator="out"/>
<feColorMatrix type="matrix" values="0 0 0 0 0 0 0 0 0 0 0 0 0 0 0 0 0 0 0.25 0"/>
<feBlend mode="normal" in2="BackgroundImageFix" result="effect1_dropShadow_432_175"/>
<feBlend mode="normal" in="SourceGraphic" in2="effect1_dropShadow_432_175" result="shape"/>
</filter>
<clipPath id="clip0_432_175">
<rect width="267" height="271" fill="white"/>
</clipPath>
</defs>
</svg>
