<svg width="64" height="60" viewBox="0 0 64 60" fill="none" xmlns="http://www.w3.org/2000/svg">
<g clip-path="url(#clip0_428_1403)">
<g filter="url(#filter0_d_428_1403)">
<rect x="5" y="11" width="49" height="46" rx="23" fill="#1822D9" fill-opacity="0.35" shape-rendering="crispEdges"/>
</g>
<g filter="url(#filter1_d_428_1403)">
<rect x="10" y="11" width="49" height="45" rx="20" fill="#0432E9" fill-opacity="0.54" shape-rendering="crispEdges"/>
</g>
<path d="M18.9492 22.8281H24.8555C25.3242 22.8281 25.752 22.8105 26.1387 22.7754C26.5254 22.7402 26.9531 22.7051 27.4219 22.6699C27.9023 22.6348 28.4766 22.5996 29.1445 22.5645C29.8125 22.5293 30.6621 22.5117 31.6934 22.5117C32.877 22.5117 33.9023 22.6816 34.7695 23.0215C35.6367 23.3496 36.3516 23.7949 36.9141 24.3574C37.4766 24.9082 37.8926 25.541 38.1621 26.2559C38.4316 26.9707 38.5664 27.7031 38.5664 28.4531C38.5664 29.3086 38.4609 30.0469 38.25 30.668C38.0391 31.2773 37.7344 31.8164 37.3359 32.2852C36.9375 32.7539 36.4512 33.1641 35.877 33.5156C35.3027 33.8672 34.6582 34.207 33.9434 34.5352C33.9199 34.5352 33.8848 34.5469 33.8379 34.5703C33.791 34.582 33.7676 34.5996 33.7676 34.623C33.7676 34.6582 33.8262 34.6992 33.9434 34.7461C34.9043 35.0977 35.7305 35.4961 36.4219 35.9414C37.125 36.375 37.7051 36.8789 38.1621 37.4531C38.6191 38.0156 38.959 38.6602 39.1816 39.3867C39.4043 40.1133 39.5156 40.9395 39.5156 41.8652C39.5156 42.2285 39.457 42.6152 39.3398 43.0254C39.2227 43.4355 39.0586 43.8457 38.8477 44.2559C38.6367 44.6543 38.3848 45.041 38.0918 45.416C37.8105 45.7793 37.4941 46.1016 37.1426 46.3828C36.416 46.9688 35.4434 47.3965 34.2246 47.666C33.0176 47.9238 31.5645 48.0527 29.8652 48.0527C29.4902 48.0527 29.127 48.0469 28.7754 48.0352C28.4238 48.0352 28.0547 48.0293 27.668 48.0176C27.293 48.0176 26.8945 48.0117 26.4727 48C26.0508 48 25.582 48 25.0664 48C24.5508 48 24.0527 48.0059 23.5723 48.0176C23.1035 48.0293 22.6348 48.041 22.166 48.0527C21.6973 48.0645 21.2168 48.0762 20.7246 48.0879C20.2324 48.0996 19.7109 48.1113 19.1602 48.123C19.1602 48.0176 19.1777 47.8945 19.2129 47.7539C19.2598 47.6133 19.3359 47.5137 19.4414 47.4551C19.8047 47.3027 20.1914 47.1973 20.6016 47.1387C21.0117 47.0801 21.3867 46.998 21.7266 46.8926C22.0781 46.7754 22.3652 46.5938 22.5879 46.3477C22.8223 46.0898 22.9395 45.6855 22.9395 45.1348V25.377C22.9395 25.2363 22.9336 25.0957 22.9219 24.9551C22.9219 24.8027 22.9043 24.6621 22.8691 24.5332C22.834 24.3926 22.7812 24.2695 22.7109 24.1641C22.6406 24.0469 22.541 23.9531 22.4121 23.8828C22.248 23.8008 22.0664 23.748 21.8672 23.7246C21.6797 23.6895 21.457 23.6602 21.1992 23.6367C20.9414 23.6133 20.6484 23.5781 20.3203 23.5312C19.9922 23.4727 19.6055 23.3789 19.1602 23.25C19.0195 23.2148 18.9492 23.1445 18.9492 23.0391V22.8281ZM26.6133 35.959V45.5918C27.0703 46.1191 27.5625 46.541 28.0898 46.8574C28.6172 47.1738 29.2324 47.332 29.9355 47.332C30.7676 47.332 31.4941 47.1445 32.1152 46.7695C32.748 46.3945 33.2695 45.9141 33.6797 45.3281C34.1016 44.7422 34.418 44.0859 34.6289 43.3594C34.8398 42.6211 34.9453 41.8945 34.9453 41.1797C34.9453 40.3594 34.7871 39.5918 34.4707 38.877C34.1543 38.1504 33.7266 37.5234 33.1875 36.9961C32.6484 36.4688 32.0215 36.0527 31.3066 35.748C30.6035 35.4434 29.8594 35.291 29.0742 35.291H28.582C28.4766 35.291 28.3066 35.291 28.0723 35.291C27.8496 35.291 27.5566 35.3027 27.1934 35.3262C26.8066 35.3262 26.6133 35.5371 26.6133 35.959ZM26.6133 23.4258V34.0957C26.6133 34.2246 26.6426 34.3359 26.7012 34.4297C26.7715 34.5117 26.8535 34.5762 26.9473 34.623C27.041 34.6699 27.1348 34.7051 27.2285 34.7285C27.3223 34.7402 27.3984 34.7461 27.457 34.7461C28.3711 34.7461 29.1562 34.6523 29.8125 34.4648C30.4805 34.2773 31.0371 34.043 31.4824 33.7617C31.8105 33.5625 32.127 33.3047 32.4316 32.9883C32.748 32.6719 33.0234 32.3086 33.2578 31.8984C33.5039 31.4883 33.6973 31.043 33.8379 30.5625C33.9902 30.0703 34.0664 29.5488 34.0664 28.998C34.0664 27.4746 33.8086 26.2852 33.293 25.4297C32.7891 24.5625 31.9805 23.959 30.8672 23.6191C30.4219 23.4785 29.9473 23.3848 29.4434 23.3379C28.9395 23.2793 28.3828 23.25 27.7734 23.25C27.5625 23.25 27.3574 23.2676 27.1582 23.3027C26.959 23.3262 26.7773 23.3672 26.6133 23.4258Z" fill="white"/>
</g>
<defs>
<filter id="filter0_d_428_1403" x="1" y="7" width="57" height="54" filterUnits="userSpaceOnUse" color-interpolation-filters="sRGB">
<feFlood flood-opacity="0" result="BackgroundImageFix"/>
<feColorMatrix in="SourceAlpha" type="matrix" values="0 0 0 0 0 0 0 0 0 0 0 0 0 0 0 0 0 0 127 0" result="hardAlpha"/>
<feOffset/>
<feGaussianBlur stdDeviation="2"/>
<feComposite in2="hardAlpha" operator="out"/>
<feColorMatrix type="matrix" values="0 0 0 0 0.529037 0 0 0 0 0.40276 0 0 0 0 0.985577 0 0 0 0.25 0"/>
<feBlend mode="normal" in2="BackgroundImageFix" result="effect1_dropShadow_428_1403"/>
<feBlend mode="normal" in="SourceGraphic" in2="effect1_dropShadow_428_1403" result="shape"/>
</filter>
<filter id="filter1_d_428_1403" x="6" y="7" width="57" height="53" filterUnits="userSpaceOnUse" color-interpolation-filters="sRGB">
<feFlood flood-opacity="0" result="BackgroundImageFix"/>
<feColorMatrix in="SourceAlpha" type="matrix" values="0 0 0 0 0 0 0 0 0 0 0 0 0 0 0 0 0 0 127 0" result="hardAlpha"/>
<feOffset/>
<feGaussianBlur stdDeviation="2"/>
<feComposite in2="hardAlpha" operator="out"/>
<feColorMatrix type="matrix" values="0 0 0 0 0.9375 0 0 0 0 0.9375 0 0 0 0 0.9375 0 0 0 0.13 0"/>
<feBlend mode="normal" in2="BackgroundImageFix" result="effect1_dropShadow_428_1403"/>
<feBlend mode="normal" in="SourceGraphic" in2="effect1_dropShadow_428_1403" result="shape"/>
</filter>
<clipPath id="clip0_428_1403">
<rect width="64" height="60" fill="white"/>
</clipPath>
</defs>
</svg>
